<?xml version="1.0" ?><svg enable-background="new 45.6 168.9 504 504" id="Layer_1" version="1.1" viewBox="45.6 168.9 504 504" xml:space="preserve" xmlns="http://www.w3.org/2000/svg" xmlns:xlink="http://www.w3.org/1999/xlink"><path d="M270.4,624.1L94.5,448.2c-15.6-15.6-15.6-40.1,0-55.7l175.9-175.9c15.6-15.6,40.1-15.6,55.7,0L502,392.5  c15.6,15.6,15.6,40.1,0,55.7L326.1,624.1C310.5,639.7,285.1,639.7,270.4,624.1z" fill="#F44336"/><path d="M274.3,505.8c0-2.9,1-5.9,2-8.8c1-2.9,2.9-4.9,4.9-6.8c2-2,4.9-3.9,7.8-4.9c2.9-1,5.9-2,9.8-2s6.8,1,9.8,2  c2.9,1,5.9,2.9,7.8,4.9c2,2,3.9,3.9,4.9,6.8c1,2.9,2,5.9,2,8.8c0,2.9-1,5.9-2,8.8c-1,2.9-2.9,4.9-4.9,6.8c-2,2-4.9,3.9-7.8,4.9  s-5.9,2-9.8,2s-6.8-1-9.8-2c-2.9-1-4.9-2.9-7.8-4.9c-2-2-3.9-3.9-4.9-6.8C275.3,511.7,274.3,509.7,274.3,505.8z M315.4,460.9h-35.2  l-4.9-147.5h44.9L315.4,460.9z" fill="#FFFFFF"/></svg>